NotoSansSyriac-Regular.ufo
<glyph name="exclam" format="2">
  <advance width="284"/>
  <unicode hex="0021"/>
  <outline>
    <contour>
      <point x="117" y="197" type="line"/>
      <point x="168" y="197" type="line"/>
      <point x="190" y="607" type="line"/>
      <point x="95" y="607" type="line"/>
    </contour>
    <contour>
      <point x="140" y="0" type="curve" smooth="yes"/>
      <point x="173" y="0"/>
      <point x="192" y="19"/>
      <point x="192" y="56" type="curve" smooth="yes"/>
      <point x="192" y="93"/>
      <point x="173" y="113"/>
      <point x="140" y="113" type="curve" smooth="yes"/>
      <point x="109" y="113"/>
      <point x="91" y="93"/>
      <point x="91" y="56" type="curve" smooth="yes"/>
      <point x="91" y="16"/>
      <point x="111" y="0"/>
    </contour>
  </outline>
</glyph>
<glyph name="plus" format="2">
  <advance width="573"/>
  <unicode hex="002B"/>
  <outline>
    <contour>
      <point x="254" y="74" type="line"/>
      <point x="318" y="74" type="line"/>
      <point x="318" y="271" type="line"/>
      <point x="509" y="271" type="line"/>
      <point x="509" y="336" type="line"/>
      <point x="318" y="336" type="line"/>
      <point x="318" y="534" type="line"/>
      <point x="254" y="534" type="line"/>
      <point x="254" y="336" type="line"/>
      <point x="63" y="336" type="line"/>
      <point x="63" y="271" type="line"/>
      <point x="254" y="271" type="line"/>
    </contour>
  </outline>
</glyph>
<glyph name="hyphen" format="2">
  <advance width="322"/>
  <unicode hex="002D"/>
  <outline>
    <contour>
      <point x="41" y="231" type="line"/>
      <point x="281" y="231" type="line"/>
      <point x="281" y="305" type="line"/>
      <point x="41" y="305" type="line"/>
    </contour>
  </outline>
</glyph>
<glyph name="period" format="2">
  <advance width="266"/>
  <unicode hex="002E"/>
  <outline>
    <contour>
      <point x="132" y="-14" type="curve" smooth="yes"/>
      <point x="169" y="-14"/>
      <point x="192" y="9"/>
      <point x="192" y="52" type="curve" smooth="yes"/>
      <point x="192" y="95"/>
      <point x="169" y="118"/>
      <point x="132" y="118" type="curve" smooth="yes"/>
      <point x="95" y="118"/>
      <point x="74" y="95"/>
      <point x="74" y="52" type="curve" smooth="yes"/>
      <point x="74" y="5"/>
      <point x="99" y="-14"/>
    </contour>
  </outline>
</glyph>
<glyph name="equal" format="2">
  <advance width="573"/>
  <unicode hex="003D"/>
  <outline>
    <contour>
      <point x="71" y="367" type="line"/>
      <point x="502" y="367" type="line"/>
      <point x="502" y="430" type="line"/>
      <point x="71" y="430" type="line"/>
    </contour>
    <contour>
      <point x="71" y="177" type="line"/>
      <point x="502" y="177" type="line"/>
      <point x="502" y="241" type="line"/>
      <point x="71" y="241" type="line"/>
    </contour>
  </outline>
</glyph>
<glyph name="backslash" format="2">
  <advance width="367"/>
  <unicode hex="005C"/>
  <outline>
    <contour>
      <point x="277" y="0" type="line"/>
      <point x="358" y="0" type="line"/>
      <point x="91" y="714" type="line"/>
      <point x="11" y="714" type="line"/>
    </contour>
  </outline>
</glyph>
<glyph name="bracketright" format="2">
  <advance width="327"/>
  <unicode hex="005D"/>
  <outline>
    <contour>
      <point x="25" y="-158" type="line"/>
      <point x="249" y="-158" type="line"/>
      <point x="249" y="693" type="line"/>
      <point x="25" y="693" type="line"/>
      <point x="25" y="627" type="line"/>
      <point x="171" y="627" type="line"/>
      <point x="171" y="-91" type="line"/>
      <point x="25" y="-91" type="line"/>
    </contour>
  </outline>
</glyph>
<glyph name="guillemotright" format="2">
  <advance width="497"/>
  <unicode hex="00BB"/>
  <outline>
    <contour>
      <point x="232" y="33" type="line"/>
      <point x="289" y="-1" type="line"/>
      <point x="457" y="197" type="line"/>
      <point x="457" y="210" type="line"/>
      <point x="289" y="409" type="line"/>
      <point x="232" y="375" type="line"/>
      <point x="372" y="205" type="line"/>
    </contour>
    <contour>
      <point x="39" y="33" type="line"/>
      <point x="96" y="-1" type="line"/>
      <point x="264" y="197" type="line"/>
      <point x="264" y="210" type="line"/>
      <point x="96" y="409" type="line"/>
      <point x="39" y="375" type="line"/>
      <point x="179" y="205" type="line"/>
    </contour>
  </outline>
</glyph>
<glyph name="uni0304" format="2">
  <unicode hex="0304"/>
  <outline>
    <contour>
      <point x="-127" y="550" type="line"/>
      <point x="127" y="550" type="line"/>
      <point x="127" y="596" type="line"/>
      <point x="-127" y="596" type="line"/>
    </contour>
  </outline>
</glyph>
<glyph name="uni0320" format="2">
  <unicode hex="0320"/>
  <outline>
    <contour>
      <point x="-127" y="-52" type="line"/>
      <point x="127" y="-52" type="line"/>
      <point x="127" y="-9" type="line"/>
      <point x="-127" y="-9" type="line"/>
    </contour>
  </outline>
</glyph>
<glyph name="uni0325" format="2">
  <unicode hex="0325"/>
  <outline>
    <contour>
      <point x="0" y="-134" type="curve" smooth="yes"/>
      <point x="35" y="-134"/>
      <point x="64" y="-109"/>
      <point x="64" y="-69" type="curve" smooth="yes"/>
      <point x="64" y="-28"/>
      <point x="37" y="-6"/>
      <point x="0" y="-6" type="curve" smooth="yes"/>
      <point x="-35" y="-6"/>
      <point x="-64" y="-31"/>
      <point x="-64" y="-71" type="curve" smooth="yes"/>
      <point x="-64" y="-111"/>
      <point x="-37" y="-134"/>
    </contour>
    <contour>
      <point x="0" y="-104" type="curve" smooth="yes"/>
      <point x="-18" y="-104"/>
      <point x="-32" y="-91"/>
      <point x="-32" y="-70" type="curve" smooth="yes"/>
      <point x="-32" y="-48"/>
      <point x="-19" y="-36"/>
      <point x="0" y="-36" type="curve" smooth="yes"/>
      <point x="19" y="-36"/>
      <point x="33" y="-48"/>
      <point x="33" y="-70" type="curve" smooth="yes"/>
      <point x="33" y="-91"/>
      <point x="19" y="-104"/>
    </contour>
  </outline>
</glyph>
<glyph name="uni032E" format="2">
  <unicode hex="032E"/>
  <outline>
    <contour>
      <point x="128" y="49" type="curve"/>
      <point x="89" y="49" type="line"/>
      <point x="83" y="14"/>
      <point x="54" y="-14"/>
      <point x="0" y="-14" type="curve" smooth="yes"/>
      <point x="-56" y="-14"/>
      <point x="-80" y="14"/>
      <point x="-88" y="49" type="curve"/>
      <point x="-126" y="49" type="line"/>
      <point x="-124" y="-21"/>
      <point x="-75" y="-61"/>
      <point x="-2" y="-61" type="curve" smooth="yes"/>
      <point x="71" y="-61"/>
      <point x="123" y="-16"/>
    </contour>
  </outline>
</glyph>
<glyph name="uni0331" format="2">
  <unicode hex="0331"/>
  <outline>
    <contour>
      <point x="-127" y="-52" type="line"/>
      <point x="127" y="-52" type="line"/>
      <point x="127" y="-9" type="line"/>
      <point x="-127" y="-9" type="line"/>
    </contour>
  </outline>
</glyph>
<glyph name="uni064E" format="2">
  <unicode hex="064E"/>
  <outline>
    <contour>
      <point x="92" y="642" type="line"/>
      <point x="-92" y="572" type="line"/>
      <point x="-91" y="538" type="line"/>
      <point x="93" y="607" type="line"/>
    </contour>
  </outline>
</glyph>
<glyph name="uni0670" format="2">
  <unicode hex="0670"/>
  <outline>
    <contour>
      <point x="23" y="722" type="line"/>
      <point x="-23" y="722" type="line"/>
      <point x="-23" y="542" type="line"/>
      <point x="23" y="542" type="line"/>
    </contour>
  </outline>
</glyph>
<glyph name="uni0701" format="2">
  <advance width="297"/>
  <unicode hex="0701"/>
  <outline>
    <contour>
      <point x="147" y="313" type="curve" smooth="yes"/>
      <point x="179" y="313"/>
      <point x="199" y="333"/>
      <point x="199" y="369" type="curve" smooth="yes"/>
      <point x="199" y="406"/>
      <point x="180" y="426"/>
      <point x="147" y="426" type="curve" smooth="yes"/>
      <point x="116" y="426"/>
      <point x="98" y="406"/>
      <point x="98" y="369" type="curve" smooth="yes"/>
      <point x="98" y="329"/>
      <point x="119" y="313"/>
    </contour>
  </outline>
</glyph>
<glyph name="uni0702" format="2">
  <advance width="257"/>
  <unicode hex="0702"/>
  <outline>
    <contour>
      <point x="127" y="-113" type="curve" smooth="yes"/>
      <point x="159" y="-113"/>
      <point x="179" y="-93"/>
      <point x="179" y="-57" type="curve" smooth="yes"/>
      <point x="179" y="-20"/>
      <point x="160" y="0"/>
      <point x="127" y="0" type="curve" smooth="yes"/>
      <point x="96" y="0"/>
      <point x="78" y="-20"/>
      <point x="78" y="-57" type="curve" smooth="yes"/>
      <point x="78" y="-97"/>
      <point x="99" y="-113"/>
    </contour>
  </outline>
</glyph>
<glyph name="uni0704" format="2">
  <advance width="257"/>
  <unicode hex="0704"/>
  <outline>
    <contour>
      <point x="127" y="0" type="curve" smooth="yes"/>
      <point x="159" y="0"/>
      <point x="179" y="20"/>
      <point x="179" y="56" type="curve" smooth="yes"/>
      <point x="179" y="93"/>
      <point x="160" y="113"/>
      <point x="127" y="113" type="curve" smooth="yes"/>
      <point x="96" y="113"/>
      <point x="78" y="93"/>
      <point x="78" y="56" type="curve" smooth="yes"/>
      <point x="78" y="16"/>
      <point x="99" y="0"/>
    </contour>
    <contour>
      <point x="127" y="-220" type="curve" smooth="yes"/>
      <point x="159" y="-220"/>
      <point x="179" y="-200"/>
      <point x="179" y="-164" type="curve" smooth="yes"/>
      <point x="179" y="-127"/>
      <point x="160" y="-107"/>
      <point x="127" y="-107" type="curve" smooth="yes"/>
      <point x="96" y="-107"/>
      <point x="78" y="-127"/>
      <point x="78" y="-164" type="curve" smooth="yes"/>
      <point x="78" y="-204"/>
      <point x="99" y="-220"/>
    </contour>
  </outline>
</glyph>
<glyph name="uni0715" format="2">
  <advance width="539"/>
  <unicode hex="0715"/>
  <outline>
    <contour>
      <point x="216" y="95" type="curve" smooth="yes"/>
      <point x="248" y="95"/>
      <point x="268" y="115"/>
      <point x="268" y="151" type="curve" smooth="yes"/>
      <point x="268" y="188"/>
      <point x="249" y="208"/>
      <point x="216" y="208" type="curve" smooth="yes"/>
      <point x="185" y="208"/>
      <point x="167" y="188"/>
      <point x="167" y="151" type="curve" smooth="yes"/>
      <point x="167" y="111"/>
      <point x="188" y="95"/>
    </contour>
    <contour>
      <point x="44" y="353" type="line"/>
      <point x="288" y="353" type="line" smooth="yes"/>
      <point x="323" y="353"/>
      <point x="343" y="350"/>
      <point x="348" y="314" type="curve" smooth="yes"/>
      <point x="393" y="-18" type="line"/>
      <point x="465" y="-18" type="line"/>
      <point x="417" y="345" type="line" smooth="yes"/>
      <point x="411" y="390"/>
      <point x="380" y="426"/>
      <point x="315" y="426" type="curve" smooth="yes"/>
      <point x="44" y="426" type="line"/>
    </contour>
  </outline>
</glyph>
<glyph name="uni0716" format="2">
  <advance width="539"/>
  <unicode hex="0716"/>
  <outline>
    <contour>
      <point x="44" y="353" type="line"/>
      <point x="288" y="353" type="line" smooth="yes"/>
      <point x="323" y="353"/>
      <point x="343" y="350"/>
      <point x="348" y="314" type="curve" smooth="yes"/>
      <point x="393" y="-18" type="line"/>
      <point x="465" y="-18" type="line"/>
      <point x="417" y="345" type="line" smooth="yes"/>
      <point x="411" y="390"/>
      <point x="380" y="426"/>
      <point x="315" y="426" type="curve" smooth="yes"/>
      <point x="44" y="426" type="line"/>
    </contour>
  </outline>
</glyph>
<glyph name="uni0719" format="2">
  <advance width="275"/>
  <unicode hex="0719"/>
  <outline>
    <contour>
      <point x="137" y="-37" type="curve"/>
      <point x="209" y="-37" type="line"/>
      <point x="196" y="106"/>
      <point x="160" y="318"/>
      <point x="141" y="426" type="curve"/>
      <point x="68" y="417" type="line"/>
      <point x="87" y="318"/>
      <point x="121" y="107"/>
    </contour>
  </outline>
</glyph>
<glyph name="uni0730" format="2">
  <unicode hex="0730"/>
  <outline>
    <contour>
      <point x="-82" y="536" type="line"/>
      <point x="98" y="700" type="line"/>
      <point x="74" y="725" type="line"/>
      <point x="45" y="699" type="line"/>
      <point x="-72" y="729" type="line"/>
      <point x="-95" y="705" type="line"/>
      <point x="-76" y="589" type="line"/>
      <point x="-105" y="561" type="line"/>
    </contour>
    <contour>
      <point x="-58" y="689" type="line"/>
      <point x="14" y="670" type="line"/>
      <point x="-44" y="616" type="line"/>
    </contour>
  </outline>
</glyph>
<glyph name="uni073A" format="2">
  <unicode hex="073A"/>
  <outline>
    <contour>
      <point x="-40" y="533" type="line"/>
      <point x="110" y="663" type="line"/>
      <point x="87" y="687" type="line"/>
      <point x="26" y="635" type="line"/>
      <point x="-5" y="670" type="line"/>
      <point x="57" y="724" type="line"/>
      <point x="33" y="749" type="line"/>
      <point x="-117" y="619" type="line"/>
      <point x="-93" y="594" type="line"/>
      <point x="-32" y="647" type="line"/>
      <point x="0" y="612" type="line"/>
      <point x="-63" y="558" type="line"/>
    </contour>
  </outline>
</glyph>
<glyph name="uni0747" format="2">
  <unicode hex="0747"/>
  <outline>
    <contour>
      <point x="74" y="709" type="line"/>
      <point x="-113" y="554" type="line"/>
      <point x="-84" y="524" type="line"/>
      <point x="102" y="679" type="line"/>
    </contour>
  </outline>
</glyph>
<glyph name="uni0748" format="2">
  <unicode hex="0748"/>
  <outline>
    <contour>
      <point x="-113" y="-13" type="line"/>
      <point x="73" y="-168" type="line"/>
      <point x="102" y="-138" type="line"/>
      <point x="-84" y="18" type="line"/>
    </contour>
  </outline>
</glyph>
<glyph name="minus" format="2">
  <advance width="573"/>
  <unicode hex="2212"/>
  <outline>
    <contour>
      <point x="509" y="271" type="line"/>
      <point x="509" y="336" type="line"/>
      <point x="63" y="336" type="line"/>
      <point x="63" y="271" type="line"/>
    </contour>
  </outline>
</glyph>
<glyph name="FC5F" format="2">
  <outline>
    <contour>
      <point x="86" y="718" type="line"/>
      <point x="-98" y="648" type="line"/>
      <point x="-96" y="613" type="line"/>
      <point x="88" y="683" type="line"/>
    </contour>
    <contour>
      <point x="92" y="642" type="line"/>
      <point x="-92" y="572" type="line"/>
      <point x="-91" y="538" type="line"/>
      <point x="93" y="607" type="line"/>
    </contour>
    <contour>
      <point x="84" y="814" type="curve" smooth="yes"/>
      <point x="84" y="835"/>
      <point x="77" y="852"/>
      <point x="63" y="865" type="curve"/>
      <point x="34" y="854" type="line"/>
      <point x="42" y="845"/>
      <point x="53" y="832"/>
      <point x="53" y="814" type="curve" smooth="yes"/>
      <point x="53" y="799"/>
      <point x="46" y="787"/>
      <point x="29" y="787" type="curve" smooth="yes"/>
      <point x="9" y="787"/>
      <point x="1" y="806"/>
      <point x="-8" y="834" type="curve"/>
      <point x="-39" y="822" type="line"/>
      <point x="-35" y="813"/>
      <point x="-33" y="801"/>
      <point x="-33" y="789" type="curve" smooth="yes"/>
      <point x="-33" y="772"/>
      <point x="-40" y="755"/>
      <point x="-60" y="755" type="curve" smooth="yes"/>
      <point x="-85" y="755"/>
      <point x="-90" y="786"/>
      <point x="-90" y="806" type="curve"/>
      <point x="-119" y="797" type="line"/>
      <point x="-119" y="759"/>
      <point x="-103" y="720"/>
      <point x="-62" y="720" type="curve" smooth="yes"/>
      <point x="-30" y="720"/>
      <point x="-12" y="740"/>
      <point x="-8" y="774" type="curve"/>
      <point x="2" y="756"/>
      <point x="22" y="753"/>
      <point x="31" y="753" type="curve" smooth="yes"/>
      <point x="62" y="753"/>
      <point x="84" y="776"/>
    </contour>
  </outline>
</glyph>
<glyph name="SAM12xout.SYRJ" format="2">
  <outline>
    <contour>
      <point x="59" y="813" type="line"/>
      <point x="59" y="779" type="line"/>
      <point x="605" y="779" type="line"/>
      <point x="605" y="813" type="line"/>
    </contour>
  </outline>
</glyph>
<glyph name="SAM12xout.SYRN" format="2">
  <outline>
    <contour>
      <point x="59" y="815" type="line"/>
      <point x="605" y="815" type="line"/>
      <point x="605" y="850" type="line"/>
      <point x="59" y="850" type="line"/>
    </contour>
  </outline>
</glyph>
<glyph name="SAM18out.SYRJ" format="2">
  <outline>
    <contour>
      <point x="-20" y="813" type="line"/>
      <point x="-20" y="779" type="line"/>
      <point x="898" y="779" type="line"/>
      <point x="898" y="813" type="line"/>
    </contour>
  </outline>
</glyph>
<glyph name="SAM18out.SYRN" format="2">
  <outline>
    <contour>
      <point x="-20" y="815" type="line"/>
      <point x="898" y="815" type="line"/>
      <point x="898" y="850" type="line"/>
      <point x="-20" y="850" type="line"/>
    </contour>
  </outline>
</glyph>
<glyph name="SAM18out" format="2">
  <outline>
    <contour>
      <point x="972" y="815" type="line"/>
      <point x="972" y="850" type="line"/>
      <point x="-20" y="850" type="line"/>
      <point x="-20" y="815" type="line"/>
    </contour>
  </outline>
</glyph>
<glyph name="SAM18xout.SYRJ" format="2">
  <outline>
    <contour>
      <point x="59" y="813" type="line"/>
      <point x="59" y="779" type="line"/>
      <point x="898" y="779" type="line"/>
      <point x="898" y="813" type="line"/>
    </contour>
  </outline>
</glyph>
<glyph name="SAM4in" format="2">
  <outline>
    <contour>
      <point x="20" y="815" type="line"/>
      <point x="20" y="850" type="line"/>
      <point x="-215" y="850" type="line"/>
      <point x="-215" y="815" type="line"/>
    </contour>
  </outline>
</glyph>
<glyph name="SAM4xin" format="2">
  <outline>
    <contour>
      <point x="-68" y="815" type="line"/>
      <point x="-68" y="850" type="line"/>
      <point x="-215" y="850" type="line"/>
      <point x="-215" y="815" type="line"/>
    </contour>
  </outline>
</glyph>
<glyph name="SAM4xout" format="2">
  <outline>
    <contour>
      <point x="215" y="815" type="line"/>
      <point x="215" y="850" type="line"/>
      <point x="59" y="850" type="line"/>
      <point x="59" y="815" type="line"/>
    </contour>
  </outline>
</glyph>
<glyph name="SAM8xin.SYRJ" format="2">
  <outline>
    <contour>
      <point x="-410" y="813" type="line"/>
      <point x="-410" y="779" type="line"/>
      <point x="-68" y="779" type="line"/>
      <point x="-68" y="813" type="line"/>
    </contour>
  </outline>
</glyph>
<glyph name="SAM8xin" format="2">
  <outline>
    <contour>
      <point x="-68" y="815" type="line"/>
      <point x="-68" y="850" type="line"/>
      <point x="-410" y="850" type="line"/>
      <point x="-410" y="815" type="line"/>
    </contour>
  </outline>
</glyph>
<glyph name="backslash.SYRN" format="2">
  <advance width="367"/>
  <outline>
    <contour>
      <point x="277" y="0" type="line"/>
      <point x="358" y="0" type="line"/>
      <point x="91" y="714" type="line"/>
      <point x="11" y="714" type="line"/>
    </contour>
  </outline>
</glyph>
<glyph name="bracketleft.SYRN" format="2">
  <advance width="326"/>
  <outline>
    <contour>
      <point x="78" y="-158" type="line"/>
      <point x="301" y="-158" type="line"/>
      <point x="301" y="-91" type="line"/>
      <point x="155" y="-91" type="line"/>
      <point x="155" y="627" type="line"/>
      <point x="301" y="627" type="line"/>
      <point x="301" y="693" type="line"/>
      <point x="78" y="693" type="line"/>
    </contour>
  </outline>
</glyph>
<glyph name="bracketright.SYRJ" format="2">
  <advance width="326"/>
  <outline>
    <contour>
      <point x="24" y="-91" type="line"/>
      <point x="24" y="-158" type="line"/>
      <point x="248" y="-158" type="line"/>
      <point x="248" y="693" type="line"/>
      <point x="24" y="693" type="line"/>
      <point x="24" y="627" type="line"/>
      <point x="170" y="627" type="line"/>
      <point x="170" y="-91" type="line"/>
    </contour>
  </outline>
</glyph>
<glyph name="bracketright.SYRN" format="2">
  <advance width="327"/>
  <outline>
    <contour>
      <point x="25" y="-158" type="line"/>
      <point x="249" y="-158" type="line"/>
      <point x="249" y="693" type="line"/>
      <point x="25" y="693" type="line"/>
      <point x="25" y="627" type="line"/>
      <point x="171" y="627" type="line"/>
      <point x="171" y="-91" type="line"/>
      <point x="25" y="-91" type="line"/>
    </contour>
  </outline>
</glyph>
<glyph name="ellipsis.SYRN" format="2">
  <advance width="698"/>
  <outline>
    <contour>
      <point x="84" y="0" type="line"/>
      <point x="178" y="0" type="line"/>
      <point x="178" y="95" type="line"/>
      <point x="84" y="95" type="line"/>
    </contour>
    <contour>
      <point x="302" y="0" type="line"/>
      <point x="396" y="0" type="line"/>
      <point x="396" y="95" type="line"/>
      <point x="302" y="95" type="line"/>
    </contour>
    <contour>
      <point x="520" y="0" type="line"/>
      <point x="614" y="0" type="line"/>
      <point x="614" y="95" type="line"/>
      <point x="520" y="95" type="line"/>
    </contour>
  </outline>
</glyph>
<glyph name="equal.SYRN" format="2">
  <advance width="573"/>
  <outline>
    <contour>
      <point x="71" y="367" type="line"/>
      <point x="502" y="367" type="line"/>
      <point x="502" y="430" type="line"/>
      <point x="71" y="430" type="line"/>
    </contour>
    <contour>
      <point x="71" y="177" type="line"/>
      <point x="502" y="177" type="line"/>
      <point x="502" y="241" type="line"/>
      <point x="71" y="241" type="line"/>
    </contour>
  </outline>
</glyph>
<glyph name="hyphen.SYRN" format="2">
  <advance width="322"/>
  <outline>
    <contour>
      <point x="41" y="231" type="line"/>
      <point x="281" y="231" type="line"/>
      <point x="281" y="305" type="line"/>
      <point x="41" y="305" type="line"/>
    </contour>
  </outline>
</glyph>
<glyph name="period.SYRN" format="2">
  <advance width="262"/>
  <outline>
    <contour>
      <point x="84" y="0" type="line"/>
      <point x="178" y="0" type="line"/>
      <point x="178" y="95" type="line"/>
      <point x="84" y="95" type="line"/>
    </contour>
  </outline>
</glyph>
<glyph name="uni0304.SYRN" format="2">
  <outline>
    <contour>
      <point x="-127" y="550" type="line"/>
      <point x="127" y="550" type="line"/>
      <point x="127" y="596" type="line"/>
      <point x="-127" y="596" type="line"/>
    </contour>
  </outline>
</glyph>
<glyph name="uni0307.SYRJ" format="2">
  <outline>
    <contour>
      <point x="-50" y="601" type="curve" smooth="yes"/>
      <point x="-50" y="561"/>
      <point x="-30" y="545"/>
      <point x="-1" y="545" type="curve" smooth="yes"/>
      <point x="32" y="545"/>
      <point x="51" y="564"/>
      <point x="51" y="601" type="curve" smooth="yes"/>
      <point x="51" y="638"/>
      <point x="32" y="658"/>
      <point x="-1" y="658" type="curve" smooth="yes"/>
      <point x="-32" y="658"/>
      <point x="-50" y="638"/>
    </contour>
  </outline>
</glyph>
<glyph name="uni0307.SYRN" format="2">
  <outline>
    <contour>
      <point x="-41" y="559" type="line"/>
      <point x="41" y="559" type="line"/>
      <point x="41" y="644" type="line"/>
      <point x="-41" y="644" type="line"/>
    </contour>
  </outline>
</glyph>
<glyph name="uni0308.SYRJ" format="2">
  <outline>
    <contour>
      <point x="-136" y="601" type="curve" smooth="yes"/>
      <point x="-136" y="560"/>
      <point x="-115" y="544"/>
      <point x="-86" y="544" type="curve" smooth="yes"/>
      <point x="-54" y="544"/>
      <point x="-35" y="564"/>
      <point x="-35" y="601" type="curve" smooth="yes"/>
      <point x="-35" y="638"/>
      <point x="-53" y="657"/>
      <point x="-86" y="657" type="curve" smooth="yes"/>
      <point x="-118" y="657"/>
      <point x="-136" y="638"/>
    </contour>
    <contour>
      <point x="33" y="601" type="curve" smooth="yes"/>
      <point x="33" y="560"/>
      <point x="53" y="544"/>
      <point x="82" y="544" type="curve" smooth="yes"/>
      <point x="115" y="544"/>
      <point x="134" y="564"/>
      <point x="134" y="601" type="curve" smooth="yes"/>
      <point x="134" y="638"/>
      <point x="115" y="657"/>
      <point x="82" y="657" type="curve" smooth="yes"/>
      <point x="51" y="657"/>
      <point x="33" y="638"/>
    </contour>
  </outline>
</glyph>
<glyph name="uni0308.SYRN" format="2">
  <outline>
    <contour>
      <point x="-123" y="559" type="line"/>
      <point x="-41" y="559" type="line"/>
      <point x="-41" y="644" type="line"/>
      <point x="-123" y="644" type="line"/>
    </contour>
    <contour>
      <point x="39" y="559" type="line"/>
      <point x="121" y="559" type="line"/>
      <point x="121" y="644" type="line"/>
      <point x="39" y="644" type="line"/>
    </contour>
  </outline>
</glyph>
<glyph name="uni0323.SYRJ" format="2">
  <outline>
    <contour>
      <point x="-49" y="-59" type="curve" smooth="yes"/>
      <point x="-49" y="-99"/>
      <point x="-29" y="-115"/>
      <point x="0" y="-115" type="curve" smooth="yes"/>
      <point x="33" y="-115"/>
      <point x="52" y="-96"/>
      <point x="52" y="-59" type="curve" smooth="yes"/>
      <point x="52" y="-22"/>
      <point x="33" y="-2"/>
      <point x="0" y="-2" type="curve" smooth="yes"/>
      <point x="-31" y="-2"/>
      <point x="-49" y="-22"/>
    </contour>
  </outline>
</glyph>
<glyph name="uni0323.SYRN" format="2">
  <outline>
    <contour>
      <point x="-40" y="-101" type="line"/>
      <point x="42" y="-101" type="line"/>
      <point x="42" y="-16" type="line"/>
      <point x="-40" y="-16" type="line"/>
    </contour>
  </outline>
</glyph>
<glyph name="uni0324.SYRN" format="2">
  <outline>
    <contour>
      <point x="-123" y="-101" type="line"/>
      <point x="-41" y="-101" type="line"/>
      <point x="-41" y="-16" type="line"/>
      <point x="-123" y="-16" type="line"/>
    </contour>
    <contour>
      <point x="39" y="-101" type="line"/>
      <point x="121" y="-101" type="line"/>
      <point x="121" y="-16" type="line"/>
      <point x="39" y="-16" type="line"/>
    </contour>
  </outline>
</glyph>
<glyph name="uni032E.SYRJ" format="2">
  <outline>
    <contour>
      <point x="0" y="-14" type="curve" smooth="yes"/>
      <point x="-57" y="-14"/>
      <point x="-80" y="14"/>
      <point x="-88" y="49" type="curve"/>
      <point x="-126" y="49" type="line"/>
      <point x="-123" y="-21"/>
      <point x="-76" y="-61"/>
      <point x="-2" y="-61" type="curve" smooth="yes"/>
      <point x="71" y="-61"/>
      <point x="123" y="-16"/>
      <point x="128" y="49" type="curve"/>
      <point x="89" y="49" type="line"/>
      <point x="83" y="14"/>
      <point x="53" y="-14"/>
    </contour>
  </outline>
</glyph>
<glyph name="uni0331.SYRJ" format="2">
  <outline>
    <contour>
      <point x="127" y="-52" type="line"/>
      <point x="127" y="-9" type="line"/>
      <point x="-127" y="-9" type="line"/>
      <point x="-127" y="-52" type="line"/>
    </contour>
  </outline>
</glyph>
<glyph name="uni0640.SYRJ" format="2">
  <advance width="379"/>
  <outline>
    <contour>
      <point x="379" y="0" type="line"/>
      <point x="379" y="76" type="line"/>
      <point x="0" y="76" type="line" smooth="yes"/>
      <point x="-21" y="76"/>
      <point x="-39" y="61"/>
      <point x="-39" y="38" type="curve" smooth="yes"/>
      <point x="-39" y="14"/>
      <point x="-21" y="0"/>
      <point x="0" y="0" type="curve" smooth="yes"/>
    </contour>
  </outline>
</glyph>
<glyph name="uni064B.SYRJ" format="2">
  <outline>
    <contour>
      <point x="92" y="642" type="line"/>
      <point x="-92" y="572" type="line"/>
      <point x="-91" y="538" type="line"/>
      <point x="93" y="607" type="line"/>
    </contour>
    <contour>
      <point x="86" y="718" type="line"/>
      <point x="-98" y="648" type="line"/>
      <point x="-96" y="613" type="line"/>
      <point x="88" y="683" type="line"/>
    </contour>
  </outline>
</glyph>
<glyph name="uni064D.SYRJ" format="2">
  <outline>
    <contour>
      <point x="92" y="-71" type="line"/>
      <point x="-92" y="-140" type="line"/>
      <point x="-91" y="-175" type="line"/>
      <point x="93" y="-105" type="line"/>
    </contour>
    <contour>
      <point x="86" y="5" type="line"/>
      <point x="-98" y="-64" type="line"/>
      <point x="-96" y="-99" type="line"/>
      <point x="88" y="-30" type="line"/>
    </contour>
  </outline>
</glyph>
<glyph name="uni064E.SYRN" format="2">
  <outline>
    <contour>
      <point x="92" y="642" type="line"/>
      <point x="-92" y="572" type="line"/>
      <point x="-91" y="538" type="line"/>
      <point x="93" y="607" type="line"/>
    </contour>
  </outline>
</glyph>
<glyph name="uni0650.SYRN" format="2">
  <outline>
    <contour>
      <point x="86" y="5" type="line"/>
      <point x="-98" y="-64" type="line"/>
      <point x="-96" y="-99" type="line"/>
      <point x="88" y="-30" type="line"/>
    </contour>
  </outline>
</glyph>
<glyph name="uni0661.SYRN" format="2">
  <advance width="460"/>
  <outline>
    <contour>
      <point x="208" y="0" type="line"/>
      <point x="277" y="0" type="line"/>
      <point x="253" y="586" type="line"/>
      <point x="183" y="586" type="line"/>
    </contour>
  </outline>
</glyph>
<glyph name="uni0670.SYRJ" format="2">
  <outline>
    <contour>
      <point x="23" y="722" type="line"/>
      <point x="-23" y="722" type="line"/>
      <point x="-23" y="542" type="line"/>
      <point x="23" y="542" type="line"/>
    </contour>
  </outline>
</glyph>
<glyph name="uni0701.SYRN" format="2">
  <advance width="256"/>
  <outline>
    <contour>
      <point x="84" y="334" type="line"/>
      <point x="172" y="334" type="line"/>
      <point x="172" y="426" type="line"/>
      <point x="84" y="426" type="line"/>
    </contour>
  </outline>
</glyph>
<glyph name="uni0702.SYRJ" format="2">
  <advance width="255"/>
  <outline>
    <contour>
      <point x="77" y="-57" type="curve" smooth="yes"/>
      <point x="77" y="-97"/>
      <point x="98" y="-113"/>
      <point x="127" y="-113" type="curve" smooth="yes"/>
      <point x="160" y="-113"/>
      <point x="178" y="-93"/>
      <point x="178" y="-57" type="curve" smooth="yes"/>
      <point x="178" y="-19"/>
      <point x="160" y="0"/>
      <point x="127" y="0" type="curve" smooth="yes"/>
      <point x="96" y="0"/>
      <point x="77" y="-19"/>
    </contour>
  </outline>
</glyph>
<glyph name="uni0702.SYRN" format="2">
  <advance width="256"/>
  <outline>
    <contour>
      <point x="84" y="-92" type="line"/>
      <point x="172" y="-92" type="line"/>
      <point x="172" y="0" type="line"/>
      <point x="84" y="0" type="line"/>
    </contour>
  </outline>
</glyph>
<glyph name="uni0703.SYRN" format="2">
  <advance width="284"/>
  <outline>
    <contour>
      <point x="98" y="426" type="line"/>
      <point x="186" y="426" type="line"/>
      <point x="186" y="518" type="line"/>
      <point x="98" y="518" type="line"/>
    </contour>
    <contour>
      <point x="98" y="206" type="line"/>
      <point x="186" y="206" type="line"/>
      <point x="186" y="298" type="line"/>
      <point x="98" y="298" type="line"/>
    </contour>
  </outline>
</glyph>
<glyph name="uni0708.SYRN" format="2">
  <advance width="374"/>
  <outline>
    <contour>
      <point x="84" y="426" type="line"/>
      <point x="172" y="426" type="line"/>
      <point x="172" y="518" type="line"/>
      <point x="84" y="518" type="line"/>
    </contour>
    <contour>
      <point x="202" y="207" type="line"/>
      <point x="290" y="207" type="line"/>
      <point x="290" y="299" type="line"/>
      <point x="202" y="299" type="line"/>
    </contour>
  </outline>
</glyph>
<glyph name="uni0710.Fina2.SYRJ" format="2">
  <advance width="251"/>
  <outline>
    <contour>
      <point x="166" y="674" type="line"/>
      <point x="93" y="674" type="line"/>
      <point x="93" y="141" type="line" smooth="yes"/>
      <point x="93" y="40"/>
      <point x="78" y="-29"/>
      <point x="58" y="-64" type="curve"/>
      <point x="118" y="-94" type="line"/>
      <point x="153" y="-50"/>
      <point x="166" y="31"/>
      <point x="166" y="142" type="curve" smooth="yes"/>
    </contour>
  </outline>
</glyph>
<glyph name="uni0710.slant.SYRJ" format="2">
  <advance width="302"/>
  <outline>
    <contour>
      <point x="195" y="-12" type="line"/>
      <point x="254" y="38" type="line"/>
      <point x="-321" y="693" type="line"/>
      <point x="-378" y="642" type="line"/>
    </contour>
  </outline>
</glyph>
<glyph name="uni0711.SYRJ" format="2">
  <outline>
    <contour>
      <point x="-2" y="818" type="curve"/>
      <point x="-29" y="793" type="line"/>
      <point x="-11" y="778"/>
      <point x="-3" y="761"/>
      <point x="-3" y="743" type="curve" smooth="yes"/>
      <point x="-3" y="728"/>
      <point x="-6" y="713"/>
      <point x="-17" y="687" type="curve" smooth="yes"/>
      <point x="-28" y="660"/>
      <point x="-35" y="632"/>
      <point x="-35" y="608" type="curve" smooth="yes"/>
      <point x="-35" y="586"/>
      <point x="-30" y="566"/>
      <point x="-20" y="547" type="curve"/>
      <point x="13" y="562" type="line"/>
      <point x="4" y="587"/>
      <point x="3" y="597"/>
      <point x="3" y="610" type="curve" smooth="yes"/>
      <point x="3" y="626"/>
      <point x="4" y="641"/>
      <point x="16" y="674" type="curve" smooth="yes"/>
      <point x="29" y="711"/>
      <point x="34" y="726"/>
      <point x="34" y="748" type="curve" smooth="yes"/>
      <point x="34" y="775"/>
      <point x="25" y="795"/>
    </contour>
  </outline>
</glyph>
<glyph name="uni0711.SYRN" format="2">
  <outline>
    <contour>
      <point x="-59" y="552" type="line"/>
      <point x="51" y="552" type="line"/>
      <point x="51" y="585" type="line"/>
      <point x="23" y="585" type="line" smooth="yes"/>
      <point x="11" y="585"/>
      <point x="-2" y="585"/>
      <point x="-16" y="584" type="curve"/>
      <point x="-16" y="587" type="line"/>
      <point x="23" y="638"/>
      <point x="35" y="685"/>
      <point x="35" y="728" type="curve" smooth="yes"/>
      <point x="35" y="783"/>
      <point x="16" y="808"/>
      <point x="-24" y="811" type="curve"/>
      <point x="-41" y="777" type="line"/>
      <point x="-9" y="764" type="line"/>
      <point x="-2" y="756"/>
      <point x="0" y="739"/>
      <point x="0" y="724" type="curve" smooth="yes"/>
      <point x="0" y="681"/>
      <point x="-18" y="627"/>
      <point x="-58" y="578" type="curve"/>
    </contour>
  </outline>
</glyph>
<glyph name="uni0712.Medi" format="2">
  <advance width="740"/>
  <outline>
    <contour>
      <point x="740" y="0" type="line"/>
      <point x="740" y="76" type="line"/>
      <point x="637" y="76" type="line"/>
      <point x="637" y="78" type="line"/>
      <point x="654" y="100"/>
      <point x="661" y="128"/>
      <point x="661" y="175" type="curve" smooth="yes"/>
      <point x="661" y="205"/>
      <point x="655" y="250"/>
      <point x="651" y="275" type="curve" smooth="yes"/>
      <point x="631" y="387"/>
      <point x="571" y="426"/>
      <point x="477" y="426" type="curve" smooth="yes"/>
      <point x="400" y="426"/>
      <point x="323" y="421"/>
      <point x="246" y="421" type="curve" smooth="yes"/>
      <point x="165" y="421"/>
      <point x="120" y="424"/>
      <point x="98" y="429" type="curve"/>
      <point x="98" y="357" type="line"/>
      <point x="117" y="352"/>
      <point x="160" y="348"/>
      <point x="251" y="348" type="curve" smooth="yes"/>
      <point x="320" y="348"/>
      <point x="393" y="353"/>
      <point x="462" y="353" type="curve" smooth="yes"/>
      <point x="529" y="353"/>
      <point x="563" y="335"/>
      <point x="579" y="264" type="curve" smooth="yes"/>
      <point x="584" y="243"/>
      <point x="589" y="205"/>
      <point x="589" y="175" type="curve" smooth="yes"/>
      <point x="589" y="106"/>
      <point x="569" y="76"/>
      <point x="501" y="76" type="curve" smooth="yes"/>
      <point x="0" y="76" type="line" smooth="yes"/>
      <point x="-21" y="76"/>
      <point x="-39" y="61"/>
      <point x="-39" y="38" type="curve" smooth="yes"/>
      <point x="-39" y="14"/>
      <point x="-21" y="0"/>
      <point x="0" y="0" type="curve" smooth="yes"/>
    </contour>
  </outline>
</glyph>
<glyph name="uni0713.Init.SYRN" format="2">
  <advance width="451"/>
  <outline>
    <contour>
      <point x="428" y="-240" type="line"/>
      <point x="524" y="-240" type="line"/>
      <point x="524" y="-141" type="line"/>
      <point x="478" y="-141" type="line"/>
      <point x="47" y="693" type="line"/>
      <point x="-23" y="659" type="line"/>
      <point x="277" y="76" type="line"/>
      <point x="0" y="76" type="line" smooth="yes"/>
      <point x="-21" y="76"/>
      <point x="-39" y="61"/>
      <point x="-39" y="38" type="curve" smooth="yes"/>
      <point x="-39" y="14"/>
      <point x="-21" y="0"/>
      <point x="0" y="0" type="curve" smooth="yes"/>
      <point x="306" y="0" type="line"/>
      <point x="324" y="46" type="line"/>
      <point x="326" y="46" type="line"/>
      <point x="428" y="-152" type="line"/>
    </contour>
  </outline>
</glyph>
<glyph name="uni0713.MediWN.SYRN" format="2">
  <advance width="420"/>
  <outline>
    <contour>
      <point x="276" y="0" type="line"/>
      <point x="420" y="0" type="line"/>
      <point x="420" y="76" type="line"/>
      <point x="288" y="76" type="line" smooth="yes"/>
      <point x="272" y="76"/>
      <point x="258" y="90"/>
      <point x="236" y="134" type="curve" smooth="yes"/>
      <point x="-51" y="693" type="line"/>
      <point x="-121" y="659" type="line"/>
      <point x="179" y="76" type="line"/>
      <point x="0" y="76" type="line" smooth="yes"/>
      <point x="-21" y="76"/>
      <point x="-39" y="61"/>
      <point x="-39" y="38" type="curve" smooth="yes"/>
      <point x="-39" y="14"/>
      <point x="-21" y="0"/>
      <point x="0" y="0" type="curve" smooth="yes"/>
      <point x="177" y="0" type="line"/>
      <point x="195" y="46" type="line"/>
      <point x="197" y="46" type="line"/>
      <point x="299" y="-152" type="line"/>
      <point x="299" y="-240" type="line"/>
      <point x="395" y="-240" type="line"/>
      <point x="395" y="-141" type="line"/>
      <point x="349" y="-141" type="line"/>
    </contour>
  </outline>
</glyph>
<glyph name="uni0713.MediWide.SYRJ" format="2">
  <advance width="729"/>
  <outline>
    <contour>
      <point x="729" y="0" type="line"/>
      <point x="729" y="76" type="line"/>
      <point x="456" y="76" type="line"/>
      <point x="374" y="139" type="line"/>
      <point x="329" y="76" type="line"/>
      <point x="728" y="-220" type="line" smooth="yes"/>
      <point x="743" y="-231"/>
      <point x="751" y="-244"/>
      <point x="751" y="-259" type="curve" smooth="yes"/>
      <point x="751" y="-292"/>
      <point x="716" y="-315"/>
      <point x="669" y="-315" type="curve" smooth="yes"/>
      <point x="626" y="-315"/>
      <point x="595" y="-296"/>
      <point x="564" y="-273" type="curve" smooth="yes"/>
      <point x="187" y="9" type="line" smooth="yes"/>
      <point x="145" y="41"/>
      <point x="94" y="76"/>
      <point x="26" y="76" type="curve" smooth="yes"/>
      <point x="0" y="76" type="line" smooth="yes"/>
      <point x="-21" y="76"/>
      <point x="-39" y="62"/>
      <point x="-39" y="38" type="curve" smooth="yes"/>
      <point x="-39" y="15"/>
      <point x="-21" y="0"/>
      <point x="0" y="0" type="curve" smooth="yes"/>
      <point x="17" y="0" type="line" smooth="yes"/>
      <point x="64" y="0"/>
      <point x="102" y="-24"/>
      <point x="138" y="-51" type="curve" smooth="yes"/>
      <point x="508" y="-328" type="line" smooth="yes"/>
      <point x="568" y="-373"/>
      <point x="619" y="-391"/>
      <point x="667" y="-391" type="curve" smooth="yes"/>
      <point x="779" y="-391"/>
      <point x="828" y="-319"/>
      <point x="828" y="-259" type="curve" smooth="yes"/>
      <point x="828" y="-220"/>
      <point x="812" y="-190"/>
      <point x="771" y="-159" type="curve" smooth="yes"/>
      <point x="629" y="-53" type="line" smooth="yes"/>
      <point x="614" y="-42"/>
      <point x="551" y="1"/>
      <point x="540" y="7" type="curve"/>
      <point x="540" y="10" type="line"/>
      <point x="570" y="5"/>
      <point x="611" y="0"/>
      <point x="626" y="0" type="curve" smooth="yes"/>
    </contour>
  </outline>
</glyph>
<glyph name="uni0719.Fina.SYRJ" format="2">
  <advance width="269"/>
  <outline>
    <contour>
      <point x="171" y="416" type="line"/>
      <point x="98" y="416" type="line"/>
      <point x="98" y="141" type="line" smooth="yes"/>
      <point x="98" y="40"/>
      <point x="83" y="-29"/>
      <point x="63" y="-64" type="curve"/>
      <point x="123" y="-94" type="line"/>
      <point x="145" y="-66"/>
      <point x="158" y="-23"/>
      <point x="165" y="33" type="curve"/>
      <point x="168" y="33" type="line"/>
      <point x="187" y="11"/>
      <point x="215" y="0"/>
      <point x="269" y="0" type="curve"/>
      <point x="269" y="76" type="line"/>
      <point x="237" y="76"/>
      <point x="172" y="76"/>
      <point x="170" y="111" type="curve"/>
      <point x="170" y="122"/>
      <point x="171" y="131"/>
      <point x="171" y="142" type="curve" smooth="yes"/>
    </contour>
  </outline>
</glyph>
<glyph name="uni071D.InitB" format="2">
  <advance width="342"/>
  <outline>
    <contour>
      <point x="0" y="0" type="curve" smooth="yes"/>
      <point x="122" y="0" type="line" smooth="yes"/>
      <point x="178" y="0"/>
      <point x="214" y="11"/>
      <point x="238" y="31" type="curve" smooth="yes"/>
      <point x="264" y="53"/>
      <point x="273" y="86"/>
      <point x="273" y="135" type="curve" smooth="yes"/>
      <point x="273" y="184"/>
      <point x="259" y="236"/>
      <point x="246" y="260" type="curve" smooth="yes"/>
      <point x="240" y="270"/>
      <point x="231" y="275"/>
      <point x="217" y="275" type="curve" smooth="yes"/>
      <point x="196" y="275"/>
      <point x="174" y="265"/>
      <point x="174" y="234" type="curve" smooth="yes"/>
      <point x="174" y="190"/>
      <point x="193" y="125"/>
      <point x="205" y="99" type="curve"/>
      <point x="199" y="78"/>
      <point x="155" y="76"/>
      <point x="93" y="76" type="curve" smooth="yes"/>
      <point x="0" y="76" type="line" smooth="yes"/>
      <point x="-21" y="76"/>
      <point x="-39" y="61"/>
      <point x="-39" y="38" type="curve" smooth="yes"/>
      <point x="-39" y="14"/>
      <point x="-21" y="0"/>
    </contour>
  </outline>
</glyph>
<glyph name="uni0720.Init.SYRJ" format="2">
  <advance width="566"/>
  <outline>
    <contour>
      <point x="518" y="38" type="line"/>
      <point x="-57" y="693" type="line"/>
      <point x="-114" y="642" type="line"/>
      <point x="373" y="87" type="line"/>
      <point x="355" y="77"/>
      <point x="331" y="76"/>
      <point x="306" y="76" type="curve" smooth="yes"/>
      <point x="0" y="76" type="line" smooth="yes"/>
      <point x="-21" y="76"/>
      <point x="-39" y="61"/>
      <point x="-39" y="38" type="curve" smooth="yes"/>
      <point x="-39" y="14"/>
      <point x="-21" y="0"/>
      <point x="0" y="0" type="curve" smooth="yes"/>
      <point x="295" y="0" type="line" smooth="yes"/>
      <point x="363" y="0"/>
      <point x="400" y="10"/>
      <point x="420" y="33" type="curve"/>
      <point x="459" y="-12" type="line"/>
    </contour>
  </outline>
</glyph>
<glyph name="uni0720.Init" format="2">
  <advance width="341"/>
  <outline>
    <contour>
      <point x="0" y="0" type="curve" smooth="yes"/>
      <point x="229" y="0" type="line" smooth="yes"/>
      <point x="261" y="0"/>
      <point x="277" y="24"/>
      <point x="277" y="59" type="curve" smooth="yes"/>
      <point x="277" y="88"/>
      <point x="269" y="119"/>
      <point x="254" y="166" type="curve" smooth="yes"/>
      <point x="223" y="263"/>
      <point x="80" y="655"/>
      <point x="41" y="753" type="curve"/>
      <point x="-31" y="725" type="line"/>
      <point x="62" y="483"/>
      <point x="162" y="216"/>
      <point x="204" y="76" type="curve"/>
      <point x="0" y="76" type="line" smooth="yes"/>
      <point x="-21" y="76"/>
      <point x="-39" y="61"/>
      <point x="-39" y="38" type="curve" smooth="yes"/>
      <point x="-39" y="14"/>
      <point x="-21" y="0"/>
    </contour>
  </outline>
</glyph>
<glyph name="uni0720.InitLiga.SYRJ" format="2">
  <advance width="234"/>
  <outline>
    <contour>
      <point x="76" y="674" type="line"/>
      <point x="76" y="141" type="line" smooth="yes"/>
      <point x="76" y="96"/>
      <point x="53" y="71"/>
      <point x="0" y="71" type="curve" smooth="yes"/>
      <point x="-17" y="71"/>
      <point x="-39" y="60"/>
      <point x="-39" y="31" type="curve" smooth="yes"/>
      <point x="-39" y="17"/>
      <point x="-31" y="-5"/>
      <point x="9" y="-5" type="curve" smooth="yes"/>
      <point x="103" y="-5"/>
      <point x="149" y="57"/>
      <point x="149" y="129" type="curve" smooth="yes"/>
      <point x="149" y="674" type="line"/>
    </contour>
  </outline>
</glyph>
<glyph name="uni0720.InitN.SYRN" format="2">
  <advance width="320"/>
  <outline>
    <contour>
      <point x="0" y="0" type="curve" smooth="yes"/>
      <point x="225" y="0" type="line"/>
      <point x="271" y="69" type="line"/>
      <point x="-51" y="693" type="line"/>
      <point x="-121" y="659" type="line"/>
      <point x="179" y="76" type="line"/>
      <point x="0" y="76" type="line" smooth="yes"/>
      <point x="-21" y="76"/>
      <point x="-39" y="61"/>
      <point x="-39" y="38" type="curve" smooth="yes"/>
      <point x="-39" y="14"/>
      <point x="-21" y="0"/>
    </contour>
  </outline>
</glyph>
<glyph name="uni0731.SYRN" format="2">
  <outline>
    <contour>
      <point x="81" y="5" type="line"/>
      <point x="-99" y="-159" type="line"/>
      <point x="-75" y="-184" type="line"/>
      <point x="-46" y="-158" type="line"/>
      <point x="71" y="-188" type="line"/>
      <point x="94" y="-164" type="line"/>
      <point x="75" y="-48" type="line"/>
      <point x="104" y="-20" type="line"/>
    </contour>
    <contour>
      <point x="57" y="-148" type="line"/>
      <point x="-15" y="-129" type="line"/>
      <point x="43" y="-75" type="line"/>
    </contour>
  </outline>
</glyph>
<glyph name="uni0732.above.SYRJ" format="2">
  <outline>
    <contour>
      <point x="11" y="563" type="curve" smooth="yes"/>
      <point x="41" y="634" type="line" smooth="yes"/>
      <point x="43" y="639"/>
      <point x="44" y="643"/>
      <point x="44" y="647" type="curve" smooth="yes"/>
      <point x="44" y="657"/>
      <point x="34" y="663"/>
      <point x="25" y="663" type="curve" smooth="yes"/>
      <point x="17" y="663"/>
      <point x="11" y="659"/>
      <point x="8" y="652" type="curve" smooth="yes"/>
      <point x="-22" y="581" type="line" smooth="yes"/>
      <point x="-24" y="576"/>
      <point x="-25" y="572"/>
      <point x="-25" y="568" type="curve" smooth="yes"/>
      <point x="-25" y="558"/>
      <point x="-15" y="552"/>
      <point x="-6" y="552" type="curve" smooth="yes"/>
      <point x="2" y="552"/>
      <point x="8" y="556"/>
    </contour>
  </outline>
</glyph>
<glyph name="uni0732.above.SYRN" format="2">
  <outline>
    <contour>
      <point x="14" y="667" type="line"/>
      <point x="-30" y="562" type="line"/>
      <point x="5" y="549" type="line"/>
      <point x="49" y="653" type="line"/>
    </contour>
  </outline>
</glyph>
<glyph name="uni0732.below.SYRN" format="2">
  <outline>
    <contour>
      <point x="-5" y="4" type="line"/>
      <point x="-49" y="-101" type="line"/>
      <point x="-14" y="-114" type="line"/>
      <point x="30" y="-10" type="line"/>
    </contour>
  </outline>
</glyph>
<glyph name="uni0734.SYRN" format="2">
  <outline>
    <contour>
      <point x="43" y="-52" type="curve"/>
      <point x="55" y="-43"/>
      <point x="70" y="-32"/>
      <point x="88" y="-20" type="curve"/>
      <point x="67" y="9" type="line"/>
      <point x="8" y="-31"/>
      <point x="-18" y="-53"/>
      <point x="-42" y="-78" type="curve" smooth="yes"/>
      <point x="-70" y="-108"/>
      <point x="-78" y="-132"/>
      <point x="-78" y="-152" type="curve" smooth="yes"/>
      <point x="-78" y="-187"/>
      <point x="-54" y="-214"/>
      <point x="-14" y="-214" type="curve" smooth="yes"/>
      <point x="35" y="-214"/>
      <point x="61" y="-175"/>
      <point x="61" y="-125" type="curve" smooth="yes"/>
      <point x="61" y="-100"/>
      <point x="55" y="-78"/>
    </contour>
    <contour>
      <point x="12" y="-75" type="curve"/>
      <point x="20" y="-89"/>
      <point x="25" y="-106"/>
      <point x="25" y="-125" type="curve" smooth="yes"/>
      <point x="25" y="-146"/>
      <point x="18" y="-177"/>
      <point x="-12" y="-177" type="curve" smooth="yes"/>
      <point x="-29" y="-177"/>
      <point x="-40" y="-166"/>
      <point x="-40" y="-148" type="curve" smooth="yes"/>
      <point x="-40" y="-135"/>
      <point x="-34" y="-120"/>
      <point x="-17" y="-102" type="curve" smooth="yes"/>
      <point x="-8" y="-93"/>
      <point x="0" y="-85"/>
    </contour>
  </outline>
</glyph>
<glyph name="uni0735.SYRN" format="2">
  <outline>
    <contour>
      <point x="-3" y="753" type="line"/>
      <point x="-74" y="664" type="line"/>
      <point x="-44" y="642" type="line"/>
      <point x="27" y="730" type="line"/>
    </contour>
    <contour>
      <point x="32" y="653" type="line"/>
      <point x="-39" y="564" type="line"/>
      <point x="-9" y="542" type="line"/>
      <point x="62" y="630" type="line"/>
    </contour>
  </outline>
</glyph>
<glyph name="uni0735.alt.SYRN" format="2">
  <outline>
    <contour>
      <point x="107" y="638" type="line"/>
      <point x="18" y="567" type="line"/>
      <point x="43" y="539" type="line"/>
      <point x="131" y="609" type="line"/>
    </contour>
    <contour>
      <point x="61" y="725" type="line"/>
      <point x="-28" y="654" type="line"/>
      <point x="-3" y="626" type="line"/>
      <point x="85" y="696" type="line"/>
    </contour>
  </outline>
</glyph>
<glyph name="uni0735.altB.SYRN" format="2">
  <outline>
    <contour>
      <point x="239" y="354" type="line"/>
      <point x="150" y="283" type="line"/>
      <point x="175" y="255" type="line"/>
      <point x="263" y="325" type="line"/>
    </contour>
    <contour>
      <point x="193" y="441" type="line"/>
      <point x="104" y="370" type="line"/>
      <point x="129" y="342" type="line"/>
      <point x="217" y="412" type="line"/>
    </contour>
  </outline>
</glyph>
<glyph name="uni0735.altC.SYRN" format="2">
  <outline>
    <contour>
      <point x="47" y="641" type="line"/>
      <point x="-38" y="566" type="line"/>
      <point x="-12" y="539" type="line"/>
      <point x="72" y="614" type="line"/>
    </contour>
    <contour>
      <point x="-7" y="725" type="line"/>
      <point x="-92" y="649" type="line"/>
      <point x="-66" y="622" type="line"/>
      <point x="19" y="697" type="line"/>
    </contour>
  </outline>
</glyph>
<glyph name="uni0738.SYRN" format="2">
  <outline>
    <contour>
      <point x="-48" y="4" type="line"/>
      <point x="-92" y="-101" type="line"/>
      <point x="-57" y="-114" type="line"/>
      <point x="-13" y="-10" type="line"/>
    </contour>
    <contour>
      <point x="57" y="4" type="line"/>
      <point x="13" y="-101" type="line"/>
      <point x="48" y="-114" type="line"/>
      <point x="92" y="-10" type="line"/>
    </contour>
  </outline>
</glyph>
<glyph name="uni073C.SYRN" format="2">
  <outline>
    <contour>
      <point x="4" y="-5" type="line"/>
      <point x="-40" y="-110" type="line"/>
      <point x="-5" y="-123" type="line"/>
      <point x="39" y="-19" type="line"/>
    </contour>
  </outline>
</glyph>
<glyph name="uni073F.SYRN" format="2">
  <outline>
    <contour>
      <point x="4" y="667" type="line"/>
      <point x="-40" y="562" type="line"/>
      <point x="-5" y="549" type="line"/>
      <point x="39" y="653" type="line"/>
    </contour>
  </outline>
</glyph>
<glyph name="uni0740.SYRJ" format="2">
  <outline>
    <contour>
      <point x="-217" y="354" type="curve" smooth="yes"/>
      <point x="-217" y="314"/>
      <point x="-197" y="298"/>
      <point x="-168" y="298" type="curve" smooth="yes"/>
      <point x="-135" y="298"/>
      <point x="-116" y="317"/>
      <point x="-116" y="354" type="curve" smooth="yes"/>
      <point x="-116" y="391"/>
      <point x="-135" y="411"/>
      <point x="-168" y="411" type="curve" smooth="yes"/>
      <point x="-199" y="411"/>
      <point x="-217" y="391"/>
    </contour>
  </outline>
</glyph>
<glyph name="uni0740.SYRN" format="2">
  <outline>
    <contour>
      <point x="-123" y="-98" type="line"/>
      <point x="-41" y="-98" type="line"/>
      <point x="-41" y="-13" type="line"/>
      <point x="-123" y="-13" type="line"/>
    </contour>
    <contour>
      <point x="39" y="-98" type="line"/>
      <point x="121" y="-98" type="line"/>
      <point x="121" y="-13" type="line"/>
      <point x="39" y="-13" type="line"/>
    </contour>
  </outline>
</glyph>
<glyph name="uni0742.SYRJ" format="2">
  <outline>
    <contour>
      <point x="-32" y="-61" type="curve" smooth="yes"/>
      <point x="-32" y="-86"/>
      <point x="-18" y="-97"/>
      <point x="0" y="-97" type="curve" smooth="yes"/>
      <point x="17" y="-97"/>
      <point x="31" y="-86"/>
      <point x="31" y="-61" type="curve" smooth="yes"/>
      <point x="31" y="-37"/>
      <point x="17" y="-26"/>
      <point x="0" y="-26" type="curve" smooth="yes"/>
      <point x="-18" y="-26"/>
      <point x="-32" y="-37"/>
    </contour>
  </outline>
</glyph>
<glyph name="uni0742.SYRN" format="2">
  <outline>
    <contour>
      <point x="-14" y="-90" type="curve" smooth="yes"/>
      <point x="3" y="-90"/>
      <point x="17" y="-79"/>
      <point x="17" y="-54" type="curve" smooth="yes"/>
      <point x="17" y="-30"/>
      <point x="3" y="-19"/>
      <point x="-14" y="-19" type="curve" smooth="yes"/>
      <point x="-32" y="-19"/>
      <point x="-46" y="-30"/>
      <point x="-46" y="-54" type="curve" smooth="yes"/>
      <point x="-46" y="-79"/>
      <point x="-32" y="-90"/>
    </contour>
  </outline>
</glyph>
<glyph name="uni0743.SYRJ" format="2">
  <outline>
    <contour>
      <point x="-38" y="584" type="curve" smooth="yes"/>
      <point x="-38" y="555"/>
      <point x="-21" y="542"/>
      <point x="0" y="542" type="curve" smooth="yes"/>
      <point x="20" y="542"/>
      <point x="37" y="555"/>
      <point x="37" y="584" type="curve" smooth="yes"/>
      <point x="37" y="612"/>
      <point x="20" y="625"/>
      <point x="0" y="625" type="curve" smooth="yes"/>
      <point x="-21" y="625"/>
      <point x="-38" y="612"/>
    </contour>
    <contour>
      <point x="-38" y="708" type="curve" smooth="yes"/>
      <point x="-38" y="679"/>
      <point x="-21" y="666"/>
      <point x="0" y="666" type="curve" smooth="yes"/>
      <point x="20" y="666"/>
      <point x="37" y="679"/>
      <point x="37" y="708" type="curve" smooth="yes"/>
      <point x="37" y="736"/>
      <point x="20" y="749"/>
      <point x="0" y="749" type="curve" smooth="yes"/>
      <point x="-21" y="749"/>
      <point x="-38" y="736"/>
    </contour>
  </outline>
</glyph>
<glyph name="uni0743.SYRN" format="2">
  <outline>
    <contour>
      <point x="-34" y="548" type="line"/>
      <point x="34" y="548" type="line"/>
      <point x="34" y="620" type="line"/>
      <point x="-34" y="620" type="line"/>
    </contour>
    <contour>
      <point x="-34" y="672" type="line"/>
      <point x="34" y="672" type="line"/>
      <point x="34" y="744" type="line"/>
      <point x="-34" y="744" type="line"/>
    </contour>
  </outline>
</glyph>
<glyph name="uni0745.SYRN" format="2">
  <outline>
    <contour>
      <point x="35" y="548" type="line"/>
      <point x="103" y="548" type="line"/>
      <point x="103" y="620" type="line"/>
      <point x="35" y="620" type="line"/>
    </contour>
    <contour>
      <point x="-34" y="672" type="line"/>
      <point x="34" y="672" type="line"/>
      <point x="34" y="744" type="line"/>
      <point x="-34" y="744" type="line"/>
    </contour>
    <contour>
      <point x="-102" y="548" type="line"/>
      <point x="-34" y="548" type="line"/>
      <point x="-34" y="620" type="line"/>
      <point x="-102" y="620" type="line"/>
    </contour>
  </outline>
</glyph>
<glyph name="uni0746.SYRN" format="2">
  <outline>
    <contour>
      <point x="35" y="-76" type="line"/>
      <point x="103" y="-76" type="line"/>
      <point x="103" y="-4" type="line"/>
      <point x="35" y="-4" type="line"/>
    </contour>
    <contour>
      <point x="-34" y="-200" type="line"/>
      <point x="34" y="-200" type="line"/>
      <point x="34" y="-128" type="line"/>
      <point x="-34" y="-128" type="line"/>
    </contour>
    <contour>
      <point x="-102" y="-76" type="line"/>
      <point x="-34" y="-76" type="line"/>
      <point x="-34" y="-4" type="line"/>
      <point x="-102" y="-4" type="line"/>
    </contour>
  </outline>
</glyph>
<glyph name="uni0747.SYRN" format="2">
  <outline>
    <contour>
      <point x="-84" y="524" type="line"/>
      <point x="102" y="679" type="line"/>
      <point x="74" y="709" type="line"/>
      <point x="-113" y="554" type="line"/>
    </contour>
  </outline>
</glyph>
<glyph name="uni0748.SYRJ" format="2">
  <outline>
    <contour>
      <point x="-113" y="-13" type="line"/>
      <point x="73" y="-168" type="line"/>
      <point x="102" y="-138" type="line"/>
      <point x="-84" y="18" type="line"/>
    </contour>
  </outline>
</glyph>
<glyph name="uni0748.SYRN" format="2">
  <outline>
    <contour>
      <point x="-113" y="-13" type="line"/>
      <point x="73" y="-168" type="line"/>
      <point x="102" y="-138" type="line"/>
      <point x="-84" y="18" type="line"/>
    </contour>
  </outline>
</glyph>
